<svg version="1.1" id="Layer_1" xmlns="http://www.w3.org/2000/svg" xmlns:xlink="http://www.w3.org/1999/xlink" x="0px" y="0px"
	 width="100%" viewBox="0 0 4961 3508" enable-background="new 0 0 4961 3508" xml:space="preserve">
<path fill="none" opacity="1.000000" stroke="#000000" stroke-linecap="round" stroke-linejoin="round" stroke-width="2.000000"
	d="
M1826.000000,734.000000 
	C1816.665039,731.619507 1825.604980,724.017639 1818.852905,719.000000 
	C1768.016479,719.000000 1714.008179,719.000000 1659.000000,719.000000 
	C1659.000000,814.657471 1659.000000,911.328735 1659.000000,1009.000000 
	C1831.994873,1009.000000 2005.997437,1009.000000 2181.000000,1009.000000 
	C2181.000000,1042.639404 2181.000000,1075.319702 2181.000000,1109.000000 
	C2033.339355,1109.000000 1884.669678,1109.000000 1734.000000,1109.000000 
	C1734.000000,1346.662964 1734.000000,1583.331421 1734.000000,1821.000000 
	C1879.993896,1821.000000 2025.996948,1821.000000 2173.000000,1821.000000 
	C2173.000000,1890.653687 2173.000000,1959.326904 2173.000000,2030.000000 
	C2163.416260,2030.000000 2152.708008,2030.000000 2142.000000,2030.000000 
"/>
<path fill="none" opacity="1.000000" stroke="#000000" stroke-linecap="round" stroke-linejoin="round" stroke-width="2.000000"
	d="
M3422.000000,2470.000000 
	C3422.000000,1984.000000 3422.000000,1498.000000 3422.000000,1010.000000 
	C3340.677490,1010.000000 3259.338867,1010.000000 3178.000000,1010.000000 
"/>
<path fill="none" opacity="1.000000" stroke="#000000" stroke-linecap="round" stroke-linejoin="round" stroke-width="2.000000"
	d="
M1546.000000,1010.000000 
	C1546.000000,1496.666626 1546.000000,1983.333374 1546.000000,2470.000000 
"/>
<path fill="none" opacity="1.000000" stroke="#000000" stroke-linecap="round" stroke-linejoin="round" stroke-width="2.000000"
	d="
M2666.000000,1114.000000 
	C2666.000000,1419.333374 2666.000000,1724.666626 2666.000000,2030.000000 
"/>
<path fill="none" opacity="1.000000" stroke="#000000" stroke-linecap="round" stroke-linejoin="round" stroke-width="2.000000"
	d="
M2634.000000,1114.000000 
	C2634.000000,1349.333374 2634.000000,1584.666626 2634.000000,1820.000000 
"/>
<path fill="none" opacity="1.000000" stroke="#000000" stroke-linecap="round" stroke-linejoin="round" stroke-width="2.000000"
	d="
M1734.000000,1858.000000 
	C1734.000000,2036.666626 1734.000000,2215.333252 1734.000000,2394.000000 
"/>
<path fill="none" opacity="1.000000" stroke="#000000" stroke-linecap="round" stroke-linejoin="round" stroke-width="2.000000"
	d="
M1546.000000,662.000000 
	C1546.000000,680.000000 1546.000000,698.000000 1546.000000,717.000000 
	C1566.623657,717.000000 1587.311890,717.000000 1610.000000,717.000000 
	C1610.000000,813.990723 1610.000000,909.995361 1610.000000,1006.000000 
"/>
<path fill="none" opacity="1.000000" stroke="#000000" stroke-linecap="round" stroke-linejoin="round" stroke-width="2.000000"
	d="
M2666.000000,2394.000000 
	C2666.000000,2338.666748 2666.000000,2283.333252 2666.000000,2227.000000 
	C2656.087891,2227.000000 2646.043945,2227.000000 2634.000000,2227.000000 
	C2634.000000,2281.984131 2634.000000,2337.991943 2634.000000,2394.000000 
"/>
<path fill="none" opacity="1.000000" stroke="#000000" stroke-linecap="round" stroke-linejoin="round" stroke-width="2.000000"
	d="
M2462.000000,1046.000000 
	C2462.000000,1066.688110 2462.000000,1087.376343 2462.000000,1110.000000 
	C2542.666748,1110.000000 2621.333252,1110.000000 2702.000000,1110.000000 
	C2702.000000,1099.432617 2702.000000,1090.716309 2702.000000,1082.000000 
"/>
<path fill="none" opacity="1.000000" stroke="#000000" stroke-linecap="round" stroke-linejoin="round" stroke-width="2.000000"
	d="
M2174.000000,2394.000000 
	C2174.000000,2330.666748 2174.000000,2267.333252 2174.000000,2202.000000 
	C2163.416260,2202.000000 2152.708008,2202.000000 2142.000000,2202.000000 
"/>
<path fill="none" opacity="1.000000" stroke="#000000" stroke-linecap="round" stroke-linejoin="round" stroke-width="2.000000"
	d="
M2462.000000,1030.000000 
	C2462.000000,1024.000000 2462.000000,1018.000000 2462.000000,1010.000000 
	C2541.322021,1010.000000 2620.661133,1010.000000 2702.000000,1010.000000 
	C2702.000000,1027.282104 2702.000000,1044.640991 2702.000000,1062.000000 
"/>
<path fill="none" opacity="1.000000" stroke="#000000" stroke-linecap="round" stroke-linejoin="round" stroke-width="2.000000"
	d="
M2634.000000,1858.000000 
	C2634.000000,1915.333374 2634.000000,1972.666626 2634.000000,2030.000000 
"/>
<path fill="none" opacity="1.000000" stroke="#000000" stroke-linecap="round" stroke-linejoin="round" stroke-width="2.000000"
	d="
M3346.000000,1110.000000 
	C3290.000000,1110.000000 3234.000000,1110.000000 3178.000000,1110.000000 
"/>
<path fill="none" opacity="1.000000" stroke="#000000" stroke-linecap="round" stroke-linejoin="round" stroke-width="2.000000"
	d="
M2662.000000,1822.000000 
	C2606.000000,1822.000000 2550.000000,1822.000000 2494.000000,1822.000000 
"/>
<path fill="none" opacity="1.000000" stroke="#000000" stroke-linecap="round" stroke-linejoin="round" stroke-width="2.000000"
	d="
M2466.000000,2398.000000 
	C2456.471924,2422.931885 2460.771973,2443.571533 2478.727295,2446.434814 
	C2475.300049,2430.001465 2482.770996,2413.662354 2474.000000,2398.000000 
"/>
<path fill="none" opacity="1.000000" stroke="#000000" stroke-linecap="round" stroke-linejoin="round" stroke-width="2.000000"
	d="
M1730.000000,2298.000000 
	C1704.666626,2298.000000 1679.299927,2298.774658 1654.013794,2297.681396 
	C1640.890259,2297.113770 1635.621460,2300.954834 1638.000000,2314.000000 
"/>
<path fill="none" opacity="1.000000" stroke="#000000" stroke-linecap="round" stroke-linejoin="round" stroke-width="2.000000"
	d="
M1638.000000,2322.000000 
	C1636.002808,2331.997314 1639.959717,2334.579590 1650.008301,2334.274170 
	C1676.650391,2333.465088 1703.333374,2334.000000 1730.000000,2334.000000 
"/>
<path fill="none" opacity="1.000000" stroke="#000000" stroke-linecap="round" stroke-linejoin="round" stroke-width="2.000000"
	d="
M1638.000000,1426.000000 
	C1636.233276,1437.505737 1642.881958,1438.323486 1652.002930,1438.161865 
	C1677.994751,1437.701050 1704.000000,1438.000000 1730.000000,1438.000000 
"/>
<path fill="none" opacity="1.000000" stroke="#000000" stroke-linecap="round" stroke-linejoin="round" stroke-width="2.000000"
	d="
M1730.000000,1402.000000 
	C1704.000000,1402.000000 1677.994751,1402.299072 1652.002808,1401.838257 
	C1642.881958,1401.676514 1636.233276,1402.494263 1638.000000,1414.000000 
"/>
<path fill="none" opacity="1.000000" stroke="#000000" stroke-linecap="round" stroke-linejoin="round" stroke-width="2.000000"
	d="
M1662.000000,1244.000000 
	C1668.064819,1247.216553 1674.870850,1250.451538 1679.606323,1254.464600 
	C1696.326416,1268.634033 1707.748901,1285.546753 1704.411499,1310.056030 
	C1701.628296,1330.495972 1707.931519,1351.249512 1705.375854,1374.375122 
	C1692.666626,1372.653198 1679.333374,1376.430054 1666.000000,1372.000000 
"/>
<path fill="none" opacity="1.000000" stroke="#000000" stroke-linecap="round" stroke-linejoin="round" stroke-width="2.000000"
	d="
M1578.000000,1148.000000 
	C1593.586792,1124.194458 1612.440063,1107.923096 1644.023804,1109.534668 
	C1677.731079,1111.254639 1703.824951,1140.181274 1704.707642,1173.981567 
	C1705.611206,1208.574951 1683.692993,1224.009888 1660.005981,1240.008911 
	C1653.299927,1244.538452 1646.666626,1237.262695 1640.000000,1240.000000 
"/>
<path fill="none" opacity="1.000000" stroke="#000000" stroke-linecap="round" stroke-linejoin="round" stroke-width="2.000000"
	d="
M1576.000000,1206.000000 
	C1571.583130,1228.556396 1572.796631,1251.582520 1575.014404,1273.899170 
	C1576.093384,1284.756592 1574.459839,1295.388306 1575.125854,1306.054565 
	C1576.998047,1336.039795 1590.975952,1361.896484 1616.000000,1372.000000 
	C1634.607056,1379.512573 1671.480591,1367.857788 1688.179810,1350.169800 
	C1693.526001,1344.507080 1697.427490,1338.073242 1702.000000,1332.000000 
"/>
<path fill="none" opacity="1.000000" stroke="#000000" stroke-linecap="round" stroke-linejoin="round" stroke-width="2.000000"
	d="
M1704.000000,1202.000000 
	C1707.238770,1227.333374 1707.238770,1252.666626 1704.000000,1278.000000 
"/>
<path fill="none" opacity="1.000000" stroke="#000000" stroke-linecap="round" stroke-linejoin="round" stroke-width="2.000000"
	d="
M1574.000000,1110.000000 
	C1574.000000,1130.000000 1574.712769,1150.031494 1573.831055,1169.992554 
	C1572.541016,1199.199463 1583.831055,1220.775269 1610.117432,1233.762329 
	C1613.481812,1235.424438 1615.162720,1238.227417 1618.000000,1240.000000 
"/>
<path fill="none" opacity="1.000000" stroke="#000000" stroke-linecap="round" stroke-linejoin="round" stroke-width="2.000000"
	d="
M1576.000000,1338.000000 
	C1571.540161,1349.110229 1575.458008,1360.713257 1573.393066,1374.383911 
	C1586.000000,1372.909302 1598.000000,1376.097778 1610.000000,1372.000000 
"/>
<path fill="none" opacity="1.000000" stroke="#000000" stroke-linecap="round" stroke-linejoin="round" stroke-width="2.000000"
	d="
M1636.000000,1240.000000 
	C1608.713867,1241.801758 1592.117065,1259.103027 1578.000000,1280.000000 
"/>
<path fill="none" opacity="1.000000" stroke="#000000" stroke-linecap="round" stroke-linejoin="round" stroke-width="2.000000"
	d="
M1684.000000,1308.000000 
	C1675.991333,1339.937744 1663.093872,1350.925781 1637.994019,1350.207275 
	C1607.481934,1349.333984 1596.338745,1328.309326 1594.483032,1305.959839 
	C1592.877441,1286.625488 1616.102783,1265.088501 1636.000000,1264.000000 
	C1662.923462,1262.527100 1679.022339,1277.226196 1682.000000,1306.000000 
"/>
<path fill="none" opacity="1.000000" stroke="#000000" stroke-linecap="round" stroke-linejoin="round" stroke-width="2.000000"
	d="
M1684.000000,1178.000000 
	C1679.841919,1199.416504 1668.448486,1214.018433 1645.995972,1217.976929 
	C1628.822388,1221.004761 1611.119995,1212.873047 1602.000000,1198.000000 
	C1592.987671,1183.302246 1593.864136,1162.263550 1604.000000,1150.000000 
	C1617.469971,1133.702515 1635.377563,1127.972168 1654.000000,1134.000000 
	C1671.570679,1139.687622 1681.229370,1153.485474 1682.000000,1174.000000 
"/>
<path fill="none" opacity="1.000000" stroke="#000000" stroke-linecap="round" stroke-linejoin="round" stroke-width="2.000000"
	d="
M2234.000000,2398.000000 
	C2234.000000,2414.000000 2234.000000,2430.000000 2234.000000,2446.000000 
"/>
<path fill="none" opacity="1.000000" stroke="#000000" stroke-linecap="round" stroke-linejoin="round" stroke-width="2.000000"
	d="
M1638.000000,1114.000000 
	C1638.000000,1198.666626 1638.000000,1283.333374 1638.000000,1368.000000 
"/>
<path fill="none" opacity="1.000000" stroke="#000000" stroke-linecap="round" stroke-linejoin="round" stroke-width="2.000000"
	d="
M1680.000000,1174.000000 
	C1646.000000,1174.000000 1612.000000,1174.000000 1578.000000,1174.000000 
"/>
<path fill="none" opacity="1.000000" stroke="#000000" stroke-linecap="round" stroke-linejoin="round" stroke-width="2.000000"
	d="
M1702.000000,1110.000000 
	C1709.492065,1121.620850 1705.964233,1133.853882 1704.000000,1146.000000 
"/>
<path fill="none" opacity="1.000000" stroke="#000000" stroke-linecap="round" stroke-linejoin="round" stroke-width="2.000000"
	d="
M1902.000000,714.000000 
	C1899.672363,720.467834 1906.862427,728.839172 1898.000000,734.000000 
"/>
<path fill="none" opacity="1.000000" stroke="#000000" stroke-linecap="round" stroke-linejoin="round" stroke-width="2.000000"
	d="
M1702.000000,1176.000000 
	C1696.000000,1171.578613 1690.000000,1174.327637 1684.000000,1176.000000 
"/>
<path fill="none" opacity="1.000000" stroke="#000000" stroke-linecap="round" stroke-linejoin="round" stroke-width="2.000000"
	d="
M1642.000000,1722.000000 
	C1633.924683,1723.752686 1639.641968,1730.102905 1638.000000,1734.000000 
"/>
<path fill="none" opacity="1.000000" stroke="#000000" stroke-linecap="round" stroke-linejoin="round" stroke-width="2.000000"
	d="
M1638.000000,1742.000000 
	C1639.641968,1745.897095 1633.924683,1752.247314 1642.000000,1754.000000 
"/>
</svg>